<svg width="249" height="295" viewBox="0 0 249 295" fill="none" xmlns="http://www.w3.org/2000/svg">
<path d="M165.479 145C165.479 167.92 147.344 186.479 125 186.479C102.656 186.479 84.5206 167.92 84.5206 145C84.5206 122.08 102.656 103.521 125 103.521C147.344 103.521 165.479 122.08 165.479 145Z" stroke="url(#paint0_linear_13_1262)" stroke-width="1.04124"/>
<path d="M210.479 145C210.479 192.764 171.982 231.479 124.5 231.479C77.0177 231.479 38.5206 192.764 38.5206 145C38.5206 97.2359 77.0177 58.5206 124.5 58.5206C171.982 58.5206 210.479 97.2359 210.479 145Z" stroke="url(#paint1_linear_13_1262)" stroke-width="1.04124"/>
<circle cx="125.5" cy="147.5" r="146.979" stroke="url(#paint2_linear_13_1262)" stroke-width="1.04124"/>
<defs>
<linearGradient id="paint0_linear_13_1262" x1="125" y1="103" x2="125" y2="187" gradientUnits="userSpaceOnUse">
<stop stop-color="#EEEEEE"/>
<stop offset="0.356" stop-color="white" stop-opacity="0.2"/>
<stop offset="0.746" stop-color="#EEEEEE"/>
<stop offset="1" stop-color="white" stop-opacity="0.2"/>
</linearGradient>
<linearGradient id="paint1_linear_13_1262" x1="124.5" y1="58" x2="125" y2="428.5" gradientUnits="userSpaceOnUse">
<stop stop-color="#EEEEEE"/>
<stop offset="0.186194" stop-color="white" stop-opacity="0.2"/>
<stop offset="0.424427" stop-color="#EEEEEE"/>
<stop offset="1" stop-color="#EEEEEE" stop-opacity="0.2"/>
</linearGradient>
<linearGradient id="paint2_linear_13_1262" x1="125.5" y1="9.354e-08" x2="126" y2="310.5" gradientUnits="userSpaceOnUse">
<stop stop-color="#EEEEEE"/>
<stop offset="0.356" stop-color="white" stop-opacity="0.2"/>
<stop offset="0.792643" stop-color="#EEEEEE"/>
<stop offset="1" stop-color="white" stop-opacity="0.2"/>
</linearGradient>
</defs>
</svg>
